# xmcd CD database file
#
# Track frame offsets:
#	150
#	13585
#	31852
#	54435
#	84807
#	101967
#	117850
#	147455
#	167370
#	195890
#	212567
#	236982
#	254710
#	276070
#	288662
#	308087
#
# Disc length: 4315 seconds
#
# Revision: 0
# Processed by: cddbd v1.5.2PL0 Copyright (c) Steve Scherf et al.
# Submitted via: CDex 1.70beta2
#
DISCID=dd10d910
DTITLE=Michiko Ogawa Trio - Together Again
DYEAR=2008
DGENRE=Jazz
TTITLE0=Them There Eyes
TTITLE1=Just A Gigolo
TTITLE2=Moonglow
TTITLE3=Dream
TTITLE4=For All We Know
TTITLE5=I Believe In Miracles
TTITLE6=I Surrender, Dear
TTITLE7=Lazy Mood
TTITLE8=Do Nothin' Till You Hear From Me
TTITLE9=Miss Brown To You
TTITLE10=Stardust
TTITLE11=I Thought About You
TTITLE12=A Hundred Years From Today
TTITLE13=Soon
TTITLE14=Stars Fell On Alabama
TTITLE15=How High The Moon
EXTD=YEAR: 2008
EXTT0=
EXTT1=
EXTT2=
EXTT3=
EXTT4=
EXTT5=
EXTT6=
EXTT7=
EXTT8=
EXTT9=
EXTT10=
EXTT11=
EXTT12=
EXTT13=
EXTT14=
EXTT15=
PLAYORDER=
